<svg width="16" height="17" viewBox="0 0 16 17" fill="none" xmlns="http://www.w3.org/2000/svg">
<mask id="path-1-inside-1_1684_195043" fill="white">
<path d="M12.6665 7.83268H8.6665V3.83268C8.6665 3.65587 8.59627 3.4863 8.47124 3.36128C8.34622 3.23625 8.17665 3.16602 7.99984 3.16602C7.82303 3.16602 7.65346 3.23625 7.52843 3.36128C7.40341 3.4863 7.33317 3.65587 7.33317 3.83268V7.83268H3.33317C3.15636 7.83268 2.98679 7.90292 2.86177 8.02794C2.73674 8.15297 2.6665 8.32254 2.6665 8.49935C2.6665 8.67616 2.73674 8.84573 2.86177 8.97075C2.98679 9.09578 3.15636 9.16602 3.33317 9.16602H7.33317V13.166C7.33317 13.3428 7.40341 13.5124 7.52843 13.6374C7.65346 13.7624 7.82303 13.8327 7.99984 13.8327C8.17665 13.8327 8.34622 13.7624 8.47124 13.6374C8.59627 13.5124 8.6665 13.3428 8.6665 13.166V9.16602H12.6665C12.8433 9.16602 13.0129 9.09578 13.1379 8.97075C13.2629 8.84573 13.3332 8.67616 13.3332 8.49935C13.3332 8.32254 13.2629 8.15297 13.1379 8.02794C13.0129 7.90292 12.8433 7.83268 12.6665 7.83268Z"/>
</mask>
<path d="M12.6665 7.83268H8.6665V3.83268C8.6665 3.65587 8.59627 3.4863 8.47124 3.36128C8.34622 3.23625 8.17665 3.16602 7.99984 3.16602C7.82303 3.16602 7.65346 3.23625 7.52843 3.36128C7.40341 3.4863 7.33317 3.65587 7.33317 3.83268V7.83268H3.33317C3.15636 7.83268 2.98679 7.90292 2.86177 8.02794C2.73674 8.15297 2.6665 8.32254 2.6665 8.49935C2.6665 8.67616 2.73674 8.84573 2.86177 8.97075C2.98679 9.09578 3.15636 9.16602 3.33317 9.16602H7.33317V13.166C7.33317 13.3428 7.40341 13.5124 7.52843 13.6374C7.65346 13.7624 7.82303 13.8327 7.99984 13.8327C8.17665 13.8327 8.34622 13.7624 8.47124 13.6374C8.59627 13.5124 8.6665 13.3428 8.6665 13.166V9.16602H12.6665C12.8433 9.16602 13.0129 9.09578 13.1379 8.97075C13.2629 8.84573 13.3332 8.67616 13.3332 8.49935C13.3332 8.32254 13.2629 8.15297 13.1379 8.02794C13.0129 7.90292 12.8433 7.83268 12.6665 7.83268Z" fill="inherit"/>
<path d="M8.6665 7.83268H6.6665V9.83268H8.6665V7.83268ZM7.99984 3.16602V1.16602V3.16602ZM7.33317 7.83268V9.83268H9.33317V7.83268H7.33317ZM2.6665 8.49935H0.666504H2.6665ZM7.33317 9.16602H9.33317V7.16602H7.33317V9.16602ZM8.6665 9.16602V7.16602H6.6665V9.16602H8.6665ZM12.6665 5.83268H8.6665V9.83268H12.6665V5.83268ZM10.6665 7.83268V3.83268H6.6665V7.83268H10.6665ZM10.6665 3.83268C10.6665 3.12544 10.3856 2.44716 9.88545 1.94706L7.05703 4.77549C6.80698 4.52544 6.6665 4.18631 6.6665 3.83268H10.6665ZM9.88545 1.94706C9.38536 1.44697 8.70708 1.16602 7.99984 1.16602V5.16602C7.64621 5.16602 7.30708 5.02554 7.05703 4.77549L9.88545 1.94706ZM7.99984 1.16602C7.29259 1.16602 6.61432 1.44697 6.11422 1.94706L8.94265 4.77549C8.6926 5.02554 8.35346 5.16602 7.99984 5.16602V1.16602ZM6.11422 1.94706C5.61412 2.44716 5.33317 3.12544 5.33317 3.83268H9.33317C9.33317 4.18631 9.19269 4.52544 8.94265 4.77549L6.11422 1.94706ZM5.33317 3.83268V7.83268H9.33317V3.83268H5.33317ZM7.33317 5.83268H3.33317V9.83268H7.33317V5.83268ZM3.33317 5.83268C2.62593 5.83268 1.94765 6.11363 1.44755 6.61373L4.27598 9.44216C4.02593 9.69221 3.68679 9.83268 3.33317 9.83268V5.83268ZM1.44755 6.61373C0.947457 7.11383 0.666504 7.7921 0.666504 8.49935H4.6665C4.6665 8.85297 4.52603 9.19211 4.27598 9.44216L1.44755 6.61373ZM0.666504 8.49935C0.666504 9.20659 0.947457 9.88487 1.44755 10.385L4.27598 7.55654C4.52603 7.80659 4.6665 8.14573 4.6665 8.49935H0.666504ZM1.44755 10.385C1.94765 10.8851 2.62593 11.166 3.33317 11.166V7.16602C3.68679 7.16602 4.02593 7.30649 4.27598 7.55654L1.44755 10.385ZM3.33317 11.166H7.33317V7.16602H3.33317V11.166ZM5.33317 9.16602V13.166H9.33317V9.16602H5.33317ZM5.33317 13.166C5.33317 13.8733 5.61412 14.5515 6.11422 15.0516L8.94265 12.2232C9.1927 12.4733 9.33317 12.8124 9.33317 13.166H5.33317ZM6.11422 15.0516C6.61432 15.5517 7.2926 15.8327 7.99984 15.8327V11.8327C8.35346 11.8327 8.6926 11.9732 8.94265 12.2232L6.11422 15.0516ZM7.99984 15.8327C8.70708 15.8327 9.38536 15.5517 9.88545 15.0516L7.05703 12.2232C7.30708 11.9732 7.64622 11.8327 7.99984 11.8327V15.8327ZM9.88545 15.0516C10.3856 14.5515 10.6665 13.8733 10.6665 13.166H6.6665C6.6665 12.8124 6.80698 12.4733 7.05703 12.2232L9.88545 15.0516ZM10.6665 13.166V9.16602H6.6665V13.166H10.6665ZM8.6665 11.166H12.6665V7.16602H8.6665V11.166ZM12.6665 11.166C13.3737 11.166 14.052 10.8851 14.5521 10.385L11.7237 7.55654C11.9737 7.30649 12.3129 7.16602 12.6665 7.16602V11.166ZM14.5521 10.385C15.0522 9.88487 15.3332 9.20659 15.3332 8.49935H11.3332C11.3332 8.14573 11.4736 7.80659 11.7237 7.55654L14.5521 10.385ZM15.3332 8.49935C15.3332 7.79211 15.0522 7.11383 14.5521 6.61373L11.7237 9.44216C11.4736 9.19211 11.3332 8.85297 11.3332 8.49935H15.3332ZM14.5521 6.61373C14.052 6.11363 13.3737 5.83268 12.6665 5.83268V9.83268C12.3129 9.83268 11.9737 9.69221 11.7237 9.44216L14.5521 6.61373Z" fill="inherit" mask="url(#path-1-inside-1_1684_195043)"/>
</svg>
